HIERARCHY
ROOT Hips
{
  OFFSET -209.198 93.6991 12.2066
  CHANNELS 6 Xposition Yposition Zposition Zrotation Xrotation Yrotation
  JOINT ToSpine
  {
    OFFSET -2.69724 7.43032 -0.144315
    CHANNELS 3 Zrotation Xrotation Yrotation
    JOINT Spine
    {
      OFFSET -0.0310711 10.7595 1.96963
      CHANNELS 3 Zrotation Xrotation Yrotation
      JOINT Spine1
      {
        OFFSET 13.1342 3.43533 0.764692
        CHANNELS 3 Zrotation Xrotation Yrotation
        JOINT Neck
        {
          OFFSET 29.8703 7.82586 -0.130764
          CHANNELS 3 Zrotation Xrotation Yrotation
          JOINT Head
          {
            OFFSET 9.52751 0.295786 -0.907742
            CHANNELS 3 Zrotation Xrotation Yrotation
            End Site
            {
              OFFSET 16.4037 0.713936 2.7358
            }
          }
        }
        JOINT LeftShoulder
        {
          OFFSET 27.5574 4.95586 2.47156
          CHANNELS 3 Zrotation Xrotation Yrotation
          JOINT LeftArm
          {
            OFFSET 1.20734 -0.998971 20.1238
            CHANNELS 3 Zrotation Xrotation Yrotation
            JOINT LeftForeArm
            {
              OFFSET 26.8049 -0.0536703 -0.155908
              CHANNELS 3 Zrotation Xrotation Yrotation
              JOINT LeftHand
              {
                OFFSET 26.6817 0 0.320147
                CHANNELS 3 Zrotation Xrotation Yrotation
                End Site
                {
                  OFFSET 18.6119 0 0.382219
                }
              }
            }
          }
        }
        JOINT RightShoulder
        {
          OFFSET 27.5927 4.71444 -2.65209
          CHANNELS 3 Zrotation Xrotation Yrotation
          JOINT RightArm
          {
            OFFSET 2.83739 -1.17114 -18.7564
            CHANNELS 3 Zrotation Xrotation Yrotation
            JOINT RightForeArm
            {
              OFFSET 28.839 -0.0548439 1.22491
              CHANNELS 3 Zrotation Xrotation Yrotation
              JOINT RightHand
              {
                OFFSET 26.5114 0 -0.101894
                CHANNELS 3 Zrotation Xrotation Yrotation
                End Site
                {
                  OFFSET 18.2168 0 0
                }
              }
            }
          }
        }
      }
    }
  }
  JOINT LeftUpLeg
  {
    OFFSET -4.76168 -1.9167 -10.2353
    CHANNELS 3 Zrotation Xrotation Yrotation
    JOINT LeftLeg
    {
      OFFSET 2.55951 -42.0585 -8.02213
      CHANNELS 3 Zrotation Xrotation Yrotation
      JOINT LeftFoot
      {
        OFFSET 3.16357 -42.5282 -3.95426
        CHANNELS 3 Zrotation Xrotation Yrotation
        JOINT LeftToeBase
        {
          OFFSET 0.346054 -6.02161 12.8035
          CHANNELS 3 Zrotation Xrotation Yrotation
          End Site
          {
            OFFSET 0.134235 -1.35082 5.13018
          }
        }
      }
    }
  }
  JOINT RightUpLeg
  {
    OFFSET -4.94151 -1.41743 10.6446
    CHANNELS 3 Zrotation Xrotation Yrotation
    JOINT RightLeg
    {
      OFFSET -2.56294 -42.0364 -7.94377
      CHANNELS 3 Zrotation Xrotation Yrotation
      JOINT RightFoot
      {
        OFFSET -3.0952 -42.555 -4.02241
        CHANNELS 3 Zrotation Xrotation Yrotation
        JOINT RightToeBase
        {
          OFFSET -0.0828122 -6.13587 12.8035
          CHANNELS 3 Zrotation Xrotation Yrotation
          End Site
          {
            OFFSET -0.131328 -1.35082 5.13018
          }
        }
      }
    }
  }
}
MOTION
Frames:	17
Frame Time:	0.0333333
26.4436 93.7393 -1.84564 -65.0784 -26.076 -171.15 -70.1915 0 88.8779 73.9424 68.8193 6.88975 4.29282 18.1552 2.13128 -148.508 26.1583 165.711 -159.889 66.2515 -174.76 -0.466859 -17.0639 -32.5004 -84.3354 42.3225 -74.1644 8.05854 10.8221 -36.7104 0.420957 0.000575423 0.35866 -1.91734 5.40999 49.7496 -65.9617 -31.7232 80.0388 10.1187 -17.3749 30.9217 0.58676 0.00033116 0.0646654 -61.0398 9.19229 102.89 -0.848238 27.7006 -3.13079 -5.76675 -7.94363 -0.371925 7.24244 -15.9352 10.5264 -26.1426 -4.48065 77.2113 1.41907 34.3917 1.00698 -6.27459 -7.90171 1.14331 1.73382 -7.20456 -8.69784 
23.9681 92.7901 -0.285069 -64.6275 -24.4601 -171.84 -70.1915 0 88.8779 75.3818 68.2692 5.88712 4.19275 17.4666 2.47111 -150.371 25.9158 167.488 -159.523 65.7382 -175.329 -0.455773 -16.8969 -32.9139 -83.903 41.6471 -76.1739 7.73551 10.2402 -37.0906 0.420957 0.000575423 0.35866 -1.87226 5.33771 49.4262 -66.4162 -31.3549 79.766 8.36886 -15.4363 29.0308 0.58676 0.00033116 0.0646654 -62.7187 8.16033 102.966 -0.830789 27.5486 -0.48391 -4.57598 -10.0649 -0.699754 6.54966 -14.8285 10.9062 -24.2043 -3.70147 81.38 1.56836 28.41 -2.21635 -5.51444 -5.53084 1.0257 1.59271 -9.90233 -5.18551 
21.3227 91.6209 1.15149 -64.684 -23.2952 -172.529 -70.1915 0 88.8779 80.2411 67.8262 1.90284 3.43199 16.7973 2.4868 -152.605 25.6361 169.173 -160.535 65.3258 -174.824 -0.451767 -16.863 -32.9722 -83.4923 41.3971 -77.9292 7.49475 9.7569 -37.5414 0.420957 0.000575423 0.35866 -1.87086 5.32212 49.4991 -69.375 -30.5931 77.8953 8.44569 -16.0033 28.4139 0.58676 0.00033116 0.0646654 -64.5531 7.3913 103.14 -0.791072 28.0308 2.00072 -3.56779 -10.5969 -0.800815 7.15689 -15.9237 13.2528 -21.8113 -3.64207 83.1311 1.55416 28.4042 -0.667688 -6.3964 -3.69939 1.05736 1.9699 -12.7189 -8.2344 
18.1879 90.3945 2.32607 -65.7012 -21.999 -173.807 -70.1915 0 88.8779 87.1669 67.7841 -4.60521 2.4131 16.5772 2.76993 -155.24 25.4873 170.841 -160.599 65.01 -175.588 -0.575692 -17.2595 -33.4813 -84.9365 40.7829 -78.1552 9.43775 11.856 -38.6118 0.420957 0.000575423 0.35866 -1.86835 5.38342 49.0774 -71.4183 -30.3441 76.9408 8.26619 -16.364 27.7839 0.58676 0.00033116 0.0646654 -67.5312 7.23784 103.823 -0.698977 29.0964 3.24332 -4.62664 -10.8762 -0.79664 8.0518 -17.2767 11.9427 -19.1974 -2.93807 85.0269 1.71657 36.2551 2.61032 -4.45824 -2.01661 0.802482 2.35912 -11.7287 -15.6094 
14.0153 88.9732 3.19508 -66.0083 -20.6368 -174.492 -70.1915 0 88.8779 88.6787 67.4034 -5.89176 2.08629 16.1745 3.11468 -156.399 24.6739 171.929 -159.57 64.0424 -176.762 -0.628058 -17.2709 -34.2245 -83.0767 40.0316 -79.631 7.53075 9.64155 -37.9987 0.420957 0.000575423 0.35866 -1.88376 5.42707 49.0745 -72.8165 -29.8016 76.6701 7.97476 -17.6976 26.828 0.58676 0.00033116 0.0646654 -69.702 8.57772 104.785 -0.916553 32.012 1.43579 -5.99657 -10.8414 -0.745759 8.59569 -18.13 11.842 -16.7504 -1.78275 85.1526 1.62493 45.2175 -3.12811 -13.4714 -2.75315 1.78612 2.37167 -19.435 -3.5714 
9.73562 89.0039 3.65331 -65.185 -19.0695 -173.223 -70.1915 0 88.8779 85.362 66.8726 -0.766972 3.67351 15.4779 3.36899 -157.492 24.0102 173.01 -159.736 63.3021 -177.758 -0.614001 -17.1332 -34.5114 -82.0419 40.0432 -80.2162 6.69759 9.0175 -36.6053 0.420957 0.000575423 0.35866 -1.86713 5.38239 49.0628 -74.7267 -29.7196 76.0865 8.27968 -19.8536 26.4122 0.58676 0.00033116 0.0646654 -70.6291 11.6114 105.073 -1.34876 33.6113 -0.595724 -7.26153 -7.14203 -0.166381 8.89016 -18.585 12.749 -16.7035 1.42514 85.8826 2.38696 48.0079 -0.123344 -10.0206 -1.9644 1.4277 2.17777 -13.7705 -11.9257 
4.74722 89.0424 3.89706 -64.3317 -18.1075 -172.185 -70.1915 0 88.8779 80.9004 65.9435 4.61865 4.84921 14.6292 3.80329 -157.411 23.1774 173.443 -159.586 62.3988 -178.582 -0.569233 -17.0075 -34.2885 -83.0478 40.7697 -78.443 7.46956 10.687 -34.9802 0.420957 0.000575423 0.35866 -1.84839 5.27908 49.3785 -74.1903 -30.1216 76.1916 7.91313 -19.5114 26.2114 0.58676 0.00033116 0.0646654 -69.4681 14.5497 103.743 -1.72051 38.1189 -0.0856289 -8.37069 -0.503136 0.920129 8.78847 -18.4307 12.2053 -17.0423 3.91665 85.6137 1.93986 51.4555 -5.60877 -10.9494 -5.84727 1.46498 1.02737 -4.04586 -4.29834 
0.0638136 89.2619 3.91796 -64.4605 -16.7218 -172.89 -70.1915 0 88.8779 79.1482 65.8541 5.71991 5.18486 14.6048 4.22322 -157.182 22.5264 173.501 -159.792 61.737 -178.714 -0.552753 -17.0126 -34.0141 -82.419 41.3359 -78.0445 5.75842 9.06932 -32.4374 0.420957 0.000575423 0.35866 -1.8375 5.29781 49.0725 -73.7383 -31.6445 77.007 7.94713 -19.749 26.1834 0.58676 0.00033116 0.0646654 -66.8774 14.4996 99.789 -2.02718 44.6601 1.49613 -8.05937 8.00093 2.13139 5.84885 -13.8945 13.2854 -18.9505 6.32675 86.6054 2.32018 53.3625 -5.11553 -10.9437 -9.45727 1.40125 1.76889 -2.15565 -10.5682 
-4.49593 89.8538 4.04611 -65.5121 -14.8553 -173.515 -70.1915 0 88.8779 84.0726 66.2807 2.22499 3.8935 15.2748 2.90141 -156.569 22.0863 173.651 -160.546 61.3837 -177.568 -0.494748 -16.8708 -33.6271 -81.6014 41.8909 -78.4404 5.57 9.60591 -30.1274 0.420957 0.000575423 0.35866 -1.88702 5.61336 48.0282 -72.6866 -34.411 78.5443 8.71584 -19.4184 26.9317 0.58676 0.00033116 0.0646654 -62.7632 14.7558 97.6482 -3.41607 54.0423 0.58943 -5.36449 8.68898 1.67749 1.88933 -7.73656 13.8658 -22.8318 8.47834 86.7456 2.30985 53.3024 -5.2191 -11.0319 -12.2718 1.3533 1.6802 -1.69532 -10.0581 
-9.01138 90.7936 4.32492 -66.3203 -11.9809 -174.339 -70.1915 0 88.8779 86.9001 67.2514 1.31947 3.82083 16.6746 1.23979 -156.524 21.9667 174.082 -160.735 61.2734 -177.39 -0.474173 -16.6197 -34.2517 -81.8995 41.8333 -78.4697 6.36993 11.6847 -28.8914 0.420957 0.000575423 0.35866 -1.94424 5.83726 47.7008 -69.3502 -35.193 81.8778 9.4768 -18.8453 27.9649 0.58676 0.00033116 0.0646654 -57.5885 14.3571 97.6981 -6.27843 62.3594 -2.98814 -2.64161 4.41446 0.694194 3.40694 -10.2954 14.8638 -27.5754 11.0337 88.0028 2.19198 51.2596 -4.33875 -10.4044 -14.6322 1.30833 1.59865 -0.264481 -9.85111 
-13.3414 92.0038 4.72905 -66.4155 -9.00002 -175.905 -70.1915 0 88.8779 86.5104 68.4959 2.37813 4.14166 18.247 0.352472 -156.34 21.8481 175.128 -161.425 61.2186 -176.292 -0.552465 -16.6848 -35.2717 -82.6941 41.961 -77.4509 6.51061 12.1511 -28.6739 0.420957 0.000575423 0.35866 -1.97262 6.07312 46.8838 -66.9358 -35.4952 85.1774 9.96099 -18.5154 28.9963 0.58676 0.00033116 0.0646654 -51.3819 12.2855 98.3875 -8.51673 67.2593 -2.44012 -2.73744 2.50764 0.517619 5.6774 -13.5755 12.7243 -32.3929 12.0931 89.821 2.16964 48.0638 -2.17098 -10.6497 -15.5781 1.29406 1.56418 -0.701764 -9.52948 
-17.7927 93.3445 5.184 -66.0778 -6.78169 -177.195 -70.1915 0 88.8779 86.0545 69.573 3.23305 3.87691 19.5555 -0.310949 -155.42 21.8578 175.239 -161.39 61.2353 -175.836 -0.486561 -16.4618 -35.0954 -81.9785 43.4357 -77.4001 6.62723 12.4759 -28.583 0.420957 0.000575423 0.35866 -1.94489 6.10582 46.2839 -67.5244 -35.6887 86.0767 11.5901 -19.7489 31.2823 0.58676 0.00033116 0.0646654 -44.5255 9.85869 98.5497 -9.82295 68.998 -2.97586 -2.35058 -0.325792 0.181165 6.5978 -14.9894 12.1688 -37.2866 11.4139 90.0203 2.28144 43.9266 1.57458 -10.6318 -15.5477 1.29466 1.74993 -1.94431 -10.4807 
-22.3453 94.4419 5.53219 -66.5103 -5.02217 -177.824 -70.1915 0 88.8779 88.3406 70.5748 1.01395 3.23235 20.463 0.125115 -154.441 21.9372 175.475 -160.718 61.2746 -175.678 -0.387229 -16.0883 -34.9654 -81.068 45.1355 -77.4373 6.76999 12.4111 -28.9342 0.420957 0.000575423 0.35866 -1.94302 6.17212 45.9186 -69.509 -35.3963 85.3938 13.4351 -20.6599 34.1051 0.58676 0.00033116 0.0646654 -39.0373 7.8395 97.7865 -9.0175 67.2252 -4.8137 -1.54571 -2.49499 -0.11943 7.90471 -17.0543 12.3337 -43.1078 11.477 90.5354 2.20622 39.5086 4.03967 -8.25189 -15.7437 1.31262 2.09308 -1.94809 -12.8487 
-26.7331 95.0298 5.93982 -66.3746 -3.25038 -178.754 -70.1915 0 88.8779 89.6172 71.6058 -0.427234 2.38133 21.4098 0.608746 -154.236 22.009 176.062 -161.65 61.418 -174.469 -0.364815 -15.9553 -35.1519 -80.4347 46.4156 -76.9404 7.75211 13.6017 -29.7579 0.420957 0.000575423 0.35866 -1.93451 6.35509 44.8925 -70.7338 -35.6824 85.4259 14.1517 -19.8198 36.6371 0.58676 0.00033116 0.0646654 -33.9115 5.32185 96.9945 -7.04018 62.3702 -7.31147 -0.671123 -5.35368 -0.455372 7.52356 -16.5934 16.4526 -47.1758 10.8906 89.9862 1.62086 36.8681 6.75311 -7.58744 -15.2887 1.31287 2.15574 -4.2102 -13.1642 
-31.3597 95.1938 6.43498 -66.432 -1.24451 -179.633 -70.1915 0 88.8779 91.3211 72.4662 -1.8232 1.99714 22.2997 0.455827 -154.502 21.9636 176.877 -162.349 61.4116 -173.624 -0.305936 -15.7085 -35.1897 -80.2637 47.6685 -76.2037 7.48527 12.9205 -30.1364 0.420957 0.000575423 0.35866 -1.94276 6.49529 44.3577 -70.7405 -35.0717 86.4 14.237 -18.3711 38.8399 0.58676 0.00033116 0.0646654 -29.8384 3.32534 95.8579 -4.77793 55.0635 -7.00327 -1.66685 -5.58498 -0.395043 8.39672 -17.8578 17.1499 -51.2697 10.1816 88.4613 0.504653 34.9426 11.6119 -7.2671 -14.7281 1.30587 2.4507 -7.5964 -15.9681 
-36.1007 94.8935 6.93125 -65.8835 0.723453 179.666 -70.1915 0 88.8779 89.8129 73.0522 0.330914 2.15638 22.943 -0.0611817 -154.922 21.5138 177.67 -162.945 60.9878 -173.045 -0.245748 -15.4486 -35.2689 -80.5007 48.5595 -74.9432 7.49519 12.6345 -30.7238 0.420957 0.000575423 0.35866 -1.98143 6.73122 43.8576 -71.0614 -34.4291 87.3135 15.1937 -18.1471 41.0813 0.58676 0.00033116 0.0646654 -26.5402 2.26978 95.4595 -3.26529 45.4108 -7.76299 0.0576345 -4.75969 -0.468656 9.49034 -19.3401 20.069 -54.7863 9.36559 86.4415 -0.615651 32.9402 13.7957 -6.52018 -15.9508 1.33243 2.02041 -6.6338 -11.693 
-41.0165 94.3542 7.41609 -65.4785 2.30855 178.749 -70.1915 0 88.8779 87.9733 73.5567 2.67156 2.47772 23.6455 -0.994932 -155.618 21.2157 178.131 -163.031 60.6814 -173.541 -0.303375 -15.625 -35.54 -79.9756 49.0537 -74.2892 7.967 13.3757 -30.851 0.420957 0.000575423 0.35866 -1.99443 6.78267 43.818 -71.6801 -33.4397 87.7408 16.4897 -18.2675 43.3424 0.58676 0.00033116 0.0646654 -25.0073 1.32984 94.787 -2.49756 33.9889 -10.3114 -1.21262 -3.73999 -0.266254 10.1452 -20.1494 21.7666 -58.7283 8.22062 84.4019 -1.24438 30.8899 17.4152 -7.3671 -15.9553 1.32344 2.22608 -10.2797 -13.4967 
